<svg id="Layer_1" xmlns="http://www.w3.org/2000/svg" width="138.5" height="28.125" viewBox="0 0 176.95 36.44"><defs><style>.cls-1 { fill: #21caff; } .cls-2 { fill: #000; }</style></defs><title>vatbox_logo_1color_white</title><path class="cls-1" d="M125.7 16.79l6.59 18.58 16.79-16.78L142.49 0 125.7 16.79z"/><path class="cls-1" d="M132.29 35.37l16.79-16.78L136.49 6 125.7 16.79l6.59 18.58z"/><path class="cls-2" d="M124.19 17.32l-.33-.95.71-.71 10.79-10.79-3.07-3.07-16.78 16.79 14.15 14.15-5.47-15.42zM23.5 4.39h3.63l-6.78 16-6.79 16-6.79-16-6.78-16h3.63l4.75 11.27 4.77 11.27.39 1.44.39-1.44 4.77-11.27 4.77-11.27M55.78 35.03h-3.63q-1.27-3-2.56-6.06t-2.56-6.06h-9.66l-2.56 6.06q-1.29 3-2.56 6.06h-3.63l6.78-16 6.78-16 6.79 16 6.78 16M42.61 12.52l-.39-1.44a30.73 30.73 0 0 1-1.53 4.25q-.92 2.06-1.8 4.16h6.66q-.75-1.75-1.47-3.48t-1.47-3.49M82.22 4.4v3.45H71.97v27.19h-3.63V7.85H58.01V4.4h24.21zM91 35.03V4.39h8a16.29 16.29 0 0 1 3.92.44 8.47 8.47 0 0 1 3 1.36 6.27 6.27 0 0 1 1.95 2.39 8 8 0 0 1 .7 3.48 8.8 8.8 0 0 1-1.29 4.77 6.52 6.52 0 0 1-3.92 2.8 9.14 9.14 0 0 1 2.39.87 7.1 7.1 0 0 1 2 1.58 7.86 7.86 0 0 1 1.38 2.23 7.4 7.4 0 0 1 .53 2.84 6.85 6.85 0 0 1-.83 3.44 7.55 7.55 0 0 1-2.21 2.45 10.07 10.07 0 0 1-3.15 1.48 13.5 13.5 0 0 1-3.68.5h-8.8zm3.63-27.18v10h4.74a5.67 5.67 0 0 0 4.09-1.45 5 5 0 0 0 1.51-3.81 4.15 4.15 0 0 0-1.58-3.68 7.07 7.07 0 0 0-4.11-1.09h-4.64zm0 13.48v10.24h4.86a10 10 0 0 0 2.54-.31 6.27 6.27 0 0 0 2.08-.94 4.85 4.85 0 0 0 1.42-1.56 4.34 4.34 0 0 0 .53-2.19 4.46 4.46 0 0 0-.61-2.36 5.09 5.09 0 0 0-1.6-1.64 7.28 7.28 0 0 0-2.3-.94 11.78 11.78 0 0 0-2.67-.31h-4.25zM162.29 19.4l-4.92-7.5-4.88-7.51h4.47l3.57 5.49 3.57 5.49c.09.2.18.4.29.59s.2.39.28.59c.09-.2.18-.4.29-.59s.19-.39.28-.59l3.57-5.49 3.57-5.49h4.46q-2.49 3.85-5 7.64t-5 7.64q2.49 3.85 5 7.68t5 7.68h-4.51l-7.35-11.29a5.71 5.71 0 0 1-.31-.61 6.08 6.08 0 0 0-.31-.61c-.09.21-.18.41-.28.61s-.2.41-.28.61l-3.66 5.65-3.66 5.65h-4.51q2.58-3.94 5.1-7.81t5.1-7.81"/></svg>
