<svg xmlns="http://www.w3.org/2000/svg" width="138.5" height="28.125" viewBox="0 0 138.5 28.125"><path fill="#fff" d="M18.19 3.835l-7.437 17.013L3.316 3.835H.5l10.253 23.358L21.008 3.835zM33.196 9.342l2.51 5.812h-5.022l2.512-5.812zm10.254 17.21L33.196 2.997 22.942 26.55h2.816l3.842-8.89h7.19l3.842 8.89h2.818zM64.205 6.342V3.835h-17.9v2.507h7.697v20.21h2.506V6.34zM134.765 3.835l-6.168 9.144-6.17-9.145h-3.024l7.68 11.386-7.64 11.33h3.023l6.13-9.088 6.132 9.09h3.02l-7.64-11.33 7.678-11.387zM104.303 1.965L91.193 14.44l13.11 13.11zM104.303 1.965l6.766 5.075-6.767 10.15z"/><path fill="#2FAAE1" d="M112.126.485L98.93 13.553l5.373 13.998 13.108-13.32z"/><path fill="#fff" d="M82.472 9.98c.176 3.522-3.486 3.882-6.426 3.882h-1.754V6.185l.94-.04c3.68-.117 7.05.04 7.24 3.836m-8.18 14.22v-7.7h3.022c2.147-.054 5.397-.093 5.53 3.543.142 3.375-2.05 4.236-5.19 4.158h-3.363zM84.68 9.98c-.206-5.597-4.147-6.145-8.387-6.145h-4.507V26.55h6.087c3.86.236 7.308-1.252 7.376-6.326.037-2.71-1.44-4.875-4.23-5.227 2.87-.43 3.73-3.18 3.662-5.016"/></svg>