<svg xmlns="http://www.w3.org/2000/svg" viewBox="0 0 24 24"><path d="M5.35 15.86v5.42h-2.8V18A2.93 2.93 0 004 17.18zm5.13 1.98v3.44h-2.8v-5.47L8.89 17a2.91 2.91 0 001.59.84zm5.12-3.35v6.79h-2.8v-4a2.2 2.2 0 00.28-.24zm5.13-5.13v11.92h-2.8v-9.12zM23 3.11l-.06 1.3v.12L22.81 7a.52.52 0 01-.11.36l-.1.08h-.12c-.07 0-.13-.06-.23-.16L20.9 6l-9.42 9.42a.7.7 0 01-1 0l-3.95-3.95-4.11 4.11a.7.7 0 01-1 0l-.22-.22a.72.72 0 010-1L6 9.54a.7.7 0 01.5-.21.67.67 0 01.5.21l4 3.94 8.7-8.71-.32-.32-.7-.7-.33-.34c-.17-.16-.18-.22-.13-.33l.04-.08c.06-.06.16-.07.31-.08l2-.1 2-.09h.07a.4.4 0 01.28.08.4.4 0 01.08.3z"/></svg>