<svg xmlns="http://www.w3.org/2000/svg" viewBox="0 0 24 24"><path d="M15.21 11.93a.89.89 0 00-.89-.89H7.19a.88.88 0 00-.63.26.9.9 0 00.63 1.53h7.13a.9.9 0 00.89-.9zm-8.02 3.34a.89.89 0 00-.89.89.89.89 0 00.89.89H9.3a.89.89 0 100-1.78z"/><path d="M10.1 20.15h-6V3.85h13v8.75a.89.89 0 00.9.89.9.9 0 00.89-.9V3a.89.89 0 00-.9-.89H3.23a.89.89 0 00-.89.89v18a.89.89 0 00.89.89h6.87a.89.89 0 00.63-.26A.88.88 0 0011 21a.92.92 0 00-.26-.63.89.89 0 00-.64-.22z"/><path d="M14.32 6.69H7.19a.89.89 0 100 1.78h7.13a.89.89 0 100-1.78zm7.06 7.77a.86.86 0 00-.65-.23.87.87 0 00-.61.3l-4.28 4.75-2.1-2a.89.89 0 10-1.24 1.29l2.77 2.66a.9.9 0 00.62.26.92.92 0 00.62-.3l4.88-5.44a.84.84 0 00.24-.64.9.9 0 00-.25-.65z"/></svg>