<svg xmlns="http://www.w3.org/2000/svg" viewBox="0 0 26 26"><path d="M7.498 24.778a12.932 12.932 0 01-3.691-2.586 12.71 12.71 0 01-1.633-2A12.927 12.927 0 010 13a12.923 12.923 0 012.172-7.184h-.006a12.736 12.736 0 011.641-2.008A12.928 12.928 0 018.355.858 12.927 12.927 0 0113 0a12.923 12.923 0 014.744.9h.007l.018.007a12.929 12.929 0 014.423 2.9 12.921 12.921 0 012.74 4.035A12.916 12.916 0 0126 12.999a12.869 12.869 0 01-.259 2.57 12.92 12.92 0 01-3.546 6.625 12.914 12.914 0 01-6.615 3.545 12.827 12.827 0 01-2.58.26 12.925 12.925 0 01-5.502-1.221zm13.208-4.071a10.913 10.913 0 00.525-14.852l-.036-.041a10.953 10.953 0 00-4.559-3.09l-.034-.012a10.95 10.95 0 00-3.145-.6h-.046a11.062 11.062 0 00-.408-.008 10.912 10.912 0 00-10.9 10.9 10.923 10.923 0 006.606 10.028 10.933 10.933 0 0011.997-2.325zm-10.367-3.558l-2.959-2.96a1.043 1.043 0 010-1.48 1.043 1.043 0 011.48 0l2.22 2.22 6.06-6.071a1.058 1.058 0 011.49 0 1.046 1.046 0 010 1.481l-6.81 6.809a1.072 1.072 0 01-.74.31 1.058 1.058 0 01-.741-.309z"/></svg>