<svg xmlns="http://www.w3.org/2000/svg" viewBox="0 0 24 24"><path d="M12 12.56a.8.8 0 000-1.12L7.52 7A.75.75 0 007 6.73a.73.73 0 00-.6.27l-.73.76a.77.77 0 00-.23.56.79.79 0 00.23.56L8.84 12l-3.17 3.16a.79.79 0 00-.23.56.75.75 0 00.23.56l.73.72a.73.73 0 00.56.23.75.75 0 00.56-.23zm6.33-1.12a.8.8 0 010 1.12L13.85 17a.75.75 0 01-.56.23.72.72 0 01-.56-.23l-.73-.71a.79.79 0 01-.23-.56.75.75 0 01.23-.56L15.16 12 12 8.8a.66.66 0 01-.23-.53.79.79 0 01.23-.56l.73-.71a.72.72 0 01.56-.23.75.75 0 01.56.23z"/></svg>