<svg xmlns="http://www.w3.org/2000/svg" viewBox="0 0 24 24"><path d="M20.83 16.34a1.33 1.33 0 01.37.92 1.3 1.3 0 01-.37.91 1.28 1.28 0 01-.94.39H4.11a1.24 1.24 0 01-.94-.39 1.3 1.3 0 01-.37-.91 1.33 1.33 0 01.37-.92l.12-.17a7.45 7.45 0 001.4-1.93A10.36 10.36 0 005.43 10a6.24 6.24 0 011.48-4.14 6.35 6.35 0 013.78-2.22v-.86a1.31 1.31 0 012.62 0v.86a6.35 6.35 0 013.78 2.22A6.24 6.24 0 0118.57 10a10.36 10.36 0 00.74 4.23 7.45 7.45 0 001.4 1.93zm-15.24.24h12.82a10.65 10.65 0 01-1.81-6.53 4.6 4.6 0 00-9.2 0 10.72 10.72 0 01-1.81 6.53zM12 22.5a2.58 2.58 0 01-1.85-.76 2.51 2.51 0 01-.78-1.87h5.26a2.51 2.51 0 01-.78 1.87 2.58 2.58 0 01-1.85.76z"/></svg>