<svg xmlns="http://www.w3.org/2000/svg" viewBox="0 0 24 24"><path d="M19.66 4.05h-3.18v-.72a.71.71 0 00-.71-.72.72.72 0 00-.73.71v.72H9v-.71a.72.72 0 00-.71-.72.72.72 0 00-.72.71v.72H4.35a1.75 1.75 0 00-1.74 1.75v13.87a1.74 1.74 0 001.73 1.73h15.32a1.74 1.74 0 001.73-1.73V5.79a1.75 1.75 0 00-1.73-1.74zM4.34 5.5h3.18v.72a.71.71 0 00.71.72.7.7 0 00.77-.71V5.5h6v.72a.71.71 0 00.71.72.72.72 0 00.73-.71V5.5h3.17a.29.29 0 01.29.29v2.27H4.05V5.79a.29.29 0 01.29-.29zM19.66 20H4.34a.3.3 0 01-.29-.29V9.5H20v10.16a.3.3 0 01-.34.34zm-9.83-8.46a1 1 0 01-1 1 1 1 0 01-1-1 1 1 0 011-1 1 1 0 011 1zm3.18 0a1 1 0 01-1 1 1 1 0 01-1-1 1 1 0 011-1 1 1 0 011 1zm3.18 0a1 1 0 01-1 1 1 1 0 01-1-1 1 1 0 011-1 1 1 0 011 1zm3.18 0a1 1 0 01-1 1 1 1 0 01-1-1 1 1 0 011-1 1 1 0 011 1zm-9.54 3.17a1 1 0 01-1 1 1 1 0 01-1-1 1 1 0 011-1 1 1 0 011 1zm-3.18 0a1 1 0 01-1 1 1 1 0 01-1-1 1 1 0 011-1 1 1 0 011 1zm6.36 0a1 1 0 01-1 1 1 1 0 01-1-1 1 1 0 011-1 1 1 0 011 1zm3.18 0a1 1 0 01-1 1 1 1 0 01-1-1 1 1 0 011-1 1 1 0 011 1zm3.18 0a1 1 0 01-1 1 1 1 0 01-1-1 1 1 0 011-1 1 1 0 011 1zm-9.54 3.18a1 1 0 01-1 1 1 1 0 01-1-1 1 1 0 011-1 1 1 0 011 1zm-3.18 0a1 1 0 01-1 1 1 1 0 01-1-1 1 1 0 011-1 1 1 0 011 1zm6.36 0a1 1 0 01-1 1 1 1 0 01-1-1 1 1 0 011-1 1 1 0 011 1z"/></svg>