<svg viewBox="0 0 40.5 43.851" xmlns="http://www.w3.org/2000/svg"><path d="M12.826 18.016a1.232 1.232 0 000 1.749l6.555 6.555a1.244 1.244 0 00.87.366 1.206 1.206 0 00.87-.366l6.555-6.555a1.237 1.237 0 00-1.749-1.749l-4.44 4.44V1.236a1.236 1.236 0 10-2.472 0v21.22l-4.44-4.44a1.232 1.232 0 00-1.749 0z"/><path d="M40.454 28.142l-4.3-15.563a1.253 1.253 0 00-.677-.8l-.119-.055a1.26 1.26 0 00-.513-.11h-7.756a1.236 1.236 0 100 2.472h6.921l3.634 13.164h-9.613a1.231 1.231 0 00-1.231 1.24v1.117a2.965 2.965 0 01-2.966 2.966h-7.548a2.965 2.965 0 01-2.966-2.966V28.49a1.231 1.231 0 00-1.236-1.236H2.847L6.5 14.062h6.921a1.236 1.236 0 000-2.472H5.658a1.26 1.26 0 00-.513.11l-.119.055a1.227 1.227 0 00-.677.8l-4.3 15.563a1.362 1.362 0 00-.046.33v6.491a8.927 8.927 0 008.917 8.917h22.663a8.927 8.927 0 008.917-8.917v-6.463a.958.958 0 00-.046-.334zm-2.426 6.793a6.454 6.454 0 01-6.445 6.445H8.917a6.454 6.454 0 01-6.445-6.445v-5.209h8.395a5.442 5.442 0 005.438 5.31h7.543a5.442 5.442 0 005.438-5.31h8.761v5.209z"/></svg>