<svg xmlns="http://www.w3.org/2000/svg" viewBox="0 0 24 24"><path d="M4.07 21.9a2.43 2.43 0 01-1.95-1 .46.46 0 00-.07-.07 1.43 1.43 0 00-.11-.21l-.1-.21a.37.37 0 010-.15c0-.1-.07-.2-.1-.3a2.5 2.5 0 01-.05-.47V4.55A2.46 2.46 0 014.08 2.1h12.6a2.44 2.44 0 011.95 1l.06.07a2.12 2.12 0 01.11.21.53.53 0 01.11.21s0 .1.06.15a.37.37 0 000 .09H4.08a.7.7 0 00-.71.69v14.92a.7.7 0 00.69.68h12.61a.82.82 0 00.31-.07h2a2.45 2.45 0 01-2.34 1.82zm13.53-3.32a.67.67 0 01-.16-.48v-1.84a3.52 3.52 0 01-1.1-.39 4 4 0 01-.91-.67v.54c0 .22 0 .4-.15.48a.78.78 0 01-.55.14.74.74 0 01-.56-.14C14 16.14 14 16 14 15.74v-2.33a.52.52 0 01.16-.47.8.8 0 01.56-.15.49.49 0 01.31.09.75.75 0 01.2.3 2.51 2.51 0 00.8 1.15 3.16 3.16 0 001.4.56V12.2c-.34 0-.68-.1-1-.16a7 7 0 01-.92-.27 2.46 2.46 0 01-.6-.32 1.61 1.61 0 01-.47-.43 2.13 2.13 0 01-.3-.58 2.16 2.16 0 01-.12-.76 2.38 2.38 0 01.26-1.14 2.65 2.65 0 01.72-.85 3.87 3.87 0 011.07-.5A5.1 5.1 0 0117.44 7V5.47A.75.75 0 0117.6 5a.74.74 0 01.52-.15.72.72 0 01.51.15.66.66 0 01.16.5v1.63a3.91 3.91 0 01.92.39 3.18 3.18 0 01.76.56v-.45a.67.67 0 01.16-.47.84.84 0 01.57-.16.77.77 0 01.55.15.59.59 0 01.16.47v1.85a.62.62 0 01-.16.49.83.83 0 01-.55.14.49.49 0 01-.48-.25 2.51 2.51 0 00-.78-.93 3.7 3.7 0 00-1.15-.46v2.4a8.83 8.83 0 011 .16 5 5 0 01.92.24 4.07 4.07 0 01.66.33 1.72 1.72 0 01.51.46 2.06 2.06 0 01.35.61 2.74 2.74 0 01.12.81 3.08 3.08 0 01-.23 1.16 2.7 2.7 0 01-.7.9 3.37 3.37 0 01-1.12.6 6 6 0 01-1.52.23v1.73a.61.61 0 01-.16.48.75.75 0 01-.51.15.81.81 0 01-.52-.15zM18.79 15a2.47 2.47 0 001.53-.46 1.29 1.29 0 00.53-1 .65.65 0 00-.24-.54 1.29 1.29 0 00-.61-.4 2.65 2.65 0 00-.57-.15l-.67-.1zm-2.73-6.25a1.1 1.1 0 00-.5.93.63.63 0 00.22.51 1.21 1.21 0 00.57.3 2.19 2.19 0 00.5.14c.18 0 .38.07.59.09V8.41a2.57 2.57 0 00-1.38.34zM5.78 17.83v-1.51h5.9v1.51zm0-4.83v-1.51h5.9V13zm0-4.83V6.66h5.9v1.51z"/></svg>