<svg xmlns="http://www.w3.org/2000/svg" xmlns:xlink="http://www.w3.org/1999/xlink"><defs><svg viewBox="0 0 24 24" id="alert" xmlns="http://www.w3.org/2000/svg"><path d="M2 12a10 10 0 1110 10A10 10 0 012 12zm2 0a8 8 0 108-8 8 8 0 00-8 8zm7 4.67a1 1 0 11.95.94 1 1 0 01-.95-.94zM11 13V7a1 1 0 012 0v6a1 1 0 01-2 0z"/></svg><svg viewBox="0 0 24 24" id="analysis" xmlns="http://www.w3.org/2000/svg"><path d="M5.35 15.86v5.42h-2.8V18A2.93 2.93 0 004 17.18zm5.13 1.98v3.44h-2.8v-5.47L8.89 17a2.91 2.91 0 001.59.84zm5.12-3.35v6.79h-2.8v-4a2.2 2.2 0 00.28-.24zm5.13-5.13v11.92h-2.8v-9.12zM23 3.11l-.06 1.3v.12L22.81 7a.52.52 0 01-.11.36l-.1.08h-.12c-.07 0-.13-.06-.23-.16L20.9 6l-9.42 9.42a.7.7 0 01-1 0l-3.95-3.95-4.11 4.11a.7.7 0 01-1 0l-.22-.22a.72.72 0 010-1L6 9.54a.7.7 0 01.5-.21.67.67 0 01.5.21l4 3.94 8.7-8.71-.32-.32-.7-.7-.33-.34c-.17-.16-.18-.22-.13-.33l.04-.08c.06-.06.16-.07.31-.08l2-.1 2-.09h.07a.4.4 0 01.28.08.4.4 0 01.08.3z"/></svg><svg viewBox="0 0 24 24" id="ap_audit" xmlns="http://www.w3.org/2000/svg"><path d="M15.21 11.93a.89.89 0 00-.89-.89H7.19a.88.88 0 00-.63.26.9.9 0 00.63 1.53h7.13a.9.9 0 00.89-.9zm-8.02 3.34a.89.89 0 00-.89.89.89.89 0 00.89.89H9.3a.89.89 0 100-1.78z"/><path d="M10.1 20.15h-6V3.85h13v8.75a.89.89 0 00.9.89.9.9 0 00.89-.9V3a.89.89 0 00-.9-.89H3.23a.89.89 0 00-.89.89v18a.89.89 0 00.89.89h6.87a.89.89 0 00.63-.26A.88.88 0 0011 21a.92.92 0 00-.26-.63.89.89 0 00-.64-.22z"/><path d="M14.32 6.69H7.19a.89.89 0 100 1.78h7.13a.89.89 0 100-1.78zm7.06 7.77a.86.86 0 00-.65-.23.87.87 0 00-.61.3l-4.28 4.75-2.1-2a.89.89 0 10-1.24 1.29l2.77 2.66a.9.9 0 00.62.26.92.92 0 00.62-.3l4.88-5.44a.84.84 0 00.24-.64.9.9 0 00-.25-.65z"/></svg><svg viewBox="0 0 26 26" id="approved" xmlns="http://www.w3.org/2000/svg"><path d="M7.498 24.778a12.932 12.932 0 01-3.691-2.586 12.71 12.71 0 01-1.633-2A12.927 12.927 0 010 13a12.923 12.923 0 012.172-7.184h-.006a12.736 12.736 0 011.641-2.008A12.928 12.928 0 018.355.858 12.927 12.927 0 0113 0a12.923 12.923 0 014.744.9h.007l.018.007a12.929 12.929 0 014.423 2.9 12.921 12.921 0 012.74 4.035A12.916 12.916 0 0126 12.999a12.869 12.869 0 01-.259 2.57 12.92 12.92 0 01-3.546 6.625 12.914 12.914 0 01-6.615 3.545 12.827 12.827 0 01-2.58.26 12.925 12.925 0 01-5.502-1.221zm13.208-4.071a10.913 10.913 0 00.525-14.852l-.036-.041a10.953 10.953 0 00-4.559-3.09l-.034-.012a10.95 10.95 0 00-3.145-.6h-.046a11.062 11.062 0 00-.408-.008 10.912 10.912 0 00-10.9 10.9 10.923 10.923 0 006.606 10.028 10.933 10.933 0 0011.997-2.325zm-10.367-3.558l-2.959-2.96a1.043 1.043 0 010-1.48 1.043 1.043 0 011.48 0l2.22 2.22 6.06-6.071a1.058 1.058 0 011.49 0 1.046 1.046 0 010 1.481l-6.81 6.809a1.072 1.072 0 01-.74.31 1.058 1.058 0 01-.741-.309z"/></svg><svg viewBox="0 0 24 24" id="arrow_down" xmlns="http://www.w3.org/2000/svg"><path d="M11.47 15a.75.75 0 001.06 0l4.25-4.25a.75.75 0 000-1.06L16.06 9A.75.75 0 0015 9l-3 3-3-3a.75.75 0 00-1.06 0l-.72.69a.75.75 0 000 1.06z"/></svg><svg viewBox="0 0 24 24" id="arrow_left" xmlns="http://www.w3.org/2000/svg"><path d="M12 12l3.17-3.16a.79.79 0 00.23-.56.77.77 0 00-.23-.56L14.44 7a.8.8 0 00-1.12 0l-4.48 4.44a.8.8 0 000 1.12L13.32 17a.8.8 0 001.12 0l.73-.76a.75.75 0 00.23-.56.79.79 0 00-.23-.56z"/></svg><svg viewBox="0 0 24 24" id="arrow_left_end" xmlns="http://www.w3.org/2000/svg"><path d="M12 11.44a.8.8 0 000 1.12L16.48 17a.75.75 0 00.56.23.73.73 0 00.56-.23l.73-.76a.77.77 0 00.23-.56.79.79 0 00-.23-.56L15.16 12l3.17-3.16a.79.79 0 00.23-.56.75.75 0 00-.23-.56L17.6 7a.73.73 0 00-.6-.27.75.75 0 00-.56.23zm-6.33 1.12a.8.8 0 010-1.12L10.15 7a.75.75 0 01.56-.23.72.72 0 01.56.23l.73.75a.79.79 0 01.23.56.75.75 0 01-.23.56L8.84 12 12 15.2a.66.66 0 01.23.53.79.79 0 01-.23.56l-.73.75a.72.72 0 01-.56.23.75.75 0 01-.56-.23z"/></svg><svg viewBox="0 0 24 24" id="arrow_right" xmlns="http://www.w3.org/2000/svg"><path d="M15.16 11.44L10.68 7a.73.73 0 00-.55-.23.72.72 0 00-.56.23l-.73.75a.76.76 0 00-.24.56.74.74 0 00.24.56L12 12l-3.16 3.16a.76.76 0 00-.24.56.74.74 0 00.24.56l.73.76a.75.75 0 00.56.23.76.76 0 00.55-.23l4.48-4.48a.77.77 0 000-1.12z"/></svg><svg viewBox="0 0 24 24" id="arrow_right_end" xmlns="http://www.w3.org/2000/svg"><path d="M12 12.56a.8.8 0 000-1.12L7.52 7A.75.75 0 007 6.73a.73.73 0 00-.6.27l-.73.76a.77.77 0 00-.23.56.79.79 0 00.23.56L8.84 12l-3.17 3.16a.79.79 0 00-.23.56.75.75 0 00.23.56l.73.72a.73.73 0 00.56.23.75.75 0 00.56-.23zm6.33-1.12a.8.8 0 010 1.12L13.85 17a.75.75 0 01-.56.23.72.72 0 01-.56-.23l-.73-.71a.79.79 0 01-.23-.56.75.75 0 01.23-.56L15.16 12 12 8.8a.66.66 0 01-.23-.53.79.79 0 01.23-.56l.73-.71a.72.72 0 01.56-.23.75.75 0 01.56.23z"/></svg><svg viewBox="0 0 24 24" id="arrow_sort_down" xmlns="http://www.w3.org/2000/svg"><path d="M8.47 9.69A.5.5 0 008 10a.5.5 0 00.11.59l3.53 3.53a.53.53 0 00.76 0l3.53-3.53A.5.5 0 0016 10a.5.5 0 00-.49-.34z"/></svg><svg viewBox="0 0 24 24" id="arrow_sort_up" xmlns="http://www.w3.org/2000/svg"><path d="M15.53 14.31A.5.5 0 0016 14a.5.5 0 00-.11-.59l-3.51-3.56a.53.53 0 00-.76 0l-3.53 3.53A.5.5 0 008 14a.5.5 0 00.49.34z"/></svg><svg viewBox="0 0 24 24" id="bell" xmlns="http://www.w3.org/2000/svg"><path d="M20.83 16.34a1.33 1.33 0 01.37.92 1.3 1.3 0 01-.37.91 1.28 1.28 0 01-.94.39H4.11a1.24 1.24 0 01-.94-.39 1.3 1.3 0 01-.37-.91 1.33 1.33 0 01.37-.92l.12-.17a7.45 7.45 0 001.4-1.93A10.36 10.36 0 005.43 10a6.24 6.24 0 011.48-4.14 6.35 6.35 0 013.78-2.22v-.86a1.31 1.31 0 012.62 0v.86a6.35 6.35 0 013.78 2.22A6.24 6.24 0 0118.57 10a10.36 10.36 0 00.74 4.23 7.45 7.45 0 001.4 1.93zm-15.24.24h12.82a10.65 10.65 0 01-1.81-6.53 4.6 4.6 0 00-9.2 0 10.72 10.72 0 01-1.81 6.53zM12 22.5a2.58 2.58 0 01-1.85-.76 2.51 2.51 0 01-.78-1.87h5.26a2.51 2.51 0 01-.78 1.87 2.58 2.58 0 01-1.85.76z"/></svg><svg viewBox="0 0 24 24" id="calendar" xmlns="http://www.w3.org/2000/svg"><path d="M19.66 4.05h-3.18v-.72a.71.71 0 00-.71-.72.72.72 0 00-.73.71v.72H9v-.71a.72.72 0 00-.71-.72.72.72 0 00-.72.71v.72H4.35a1.75 1.75 0 00-1.74 1.75v13.87a1.74 1.74 0 001.73 1.73h15.32a1.74 1.74 0 001.73-1.73V5.79a1.75 1.75 0 00-1.73-1.74zM4.34 5.5h3.18v.72a.71.71 0 00.71.72.7.7 0 00.77-.71V5.5h6v.72a.71.71 0 00.71.72.72.72 0 00.73-.71V5.5h3.17a.29.29 0 01.29.29v2.27H4.05V5.79a.29.29 0 01.29-.29zM19.66 20H4.34a.3.3 0 01-.29-.29V9.5H20v10.16a.3.3 0 01-.34.34zm-9.83-8.46a1 1 0 01-1 1 1 1 0 01-1-1 1 1 0 011-1 1 1 0 011 1zm3.18 0a1 1 0 01-1 1 1 1 0 01-1-1 1 1 0 011-1 1 1 0 011 1zm3.18 0a1 1 0 01-1 1 1 1 0 01-1-1 1 1 0 011-1 1 1 0 011 1zm3.18 0a1 1 0 01-1 1 1 1 0 01-1-1 1 1 0 011-1 1 1 0 011 1zm-9.54 3.17a1 1 0 01-1 1 1 1 0 01-1-1 1 1 0 011-1 1 1 0 011 1zm-3.18 0a1 1 0 01-1 1 1 1 0 01-1-1 1 1 0 011-1 1 1 0 011 1zm6.36 0a1 1 0 01-1 1 1 1 0 01-1-1 1 1 0 011-1 1 1 0 011 1zm3.18 0a1 1 0 01-1 1 1 1 0 01-1-1 1 1 0 011-1 1 1 0 011 1zm3.18 0a1 1 0 01-1 1 1 1 0 01-1-1 1 1 0 011-1 1 1 0 011 1zm-9.54 3.18a1 1 0 01-1 1 1 1 0 01-1-1 1 1 0 011-1 1 1 0 011 1zm-3.18 0a1 1 0 01-1 1 1 1 0 01-1-1 1 1 0 011-1 1 1 0 011 1zm6.36 0a1 1 0 01-1 1 1 1 0 01-1-1 1 1 0 011-1 1 1 0 011 1z"/></svg><svg viewBox="0 0 24 24" id="clear_filter" xmlns="http://www.w3.org/2000/svg"><path d="M8.44 19.7a.82.82 0 01-.1-.4V14a14.28 14.28 0 01-6.09-6.41.77.77 0 01-.09-.36V5.54C2.16 3.2 8.61 3 10.58 3S19 3.2 19 5.54v1.69a.94.94 0 01-.08.36A14.31 14.31 0 0112.83 14v5.3a1.12 1.12 0 01-.1.4 2.44 2.44 0 01-3.29 1 2.41 2.41 0 01-1-1zm1.11-7a.82.82 0 01.46.76v5.55a.8.8 0 001.13 0V13.5a.83.83 0 01.47-.76 12.55 12.55 0 005.58-5.49A27.13 27.13 0 014 7.25a12.6 12.6 0 005.58 5.49zM4 5.12l-1 .42L4 6a25.11 25.11 0 0013.16 0l1-.42-1-.42A25.11 25.11 0 004 5.12zm16.76 14.59l-2.23-2.23-2.22 2.23a.65.65 0 01-.9 0 .64.64 0 010-.89l2.23-2.23-2.23-2.23a.63.63 0 11.9-.89l2.22 2.23 2.23-2.23a.63.63 0 01.89.89l-2.23 2.23 2.23 2.23a.62.62 0 010 .89.64.64 0 01-.89 0z"/></svg><svg viewBox="0 0 24 24" id="close" xmlns="http://www.w3.org/2000/svg"><path d="M15.7 17.2L12 13.49 8.28 17.2a1 1 0 11-1.48-1.48L10.51 12 6.8 8.3a1 1 0 111.48-1.48L12 10.53l3.7-3.71a1 1 0 011.52 1.44L13.47 12l3.71 3.71a1 1 0 01-1.48 1.49z"/></svg><svg viewBox="0 0 40.5 43.851" id="download_file" xmlns="http://www.w3.org/2000/svg"><path d="M12.826 18.016a1.232 1.232 0 000 1.749l6.555 6.555a1.244 1.244 0 00.87.366 1.206 1.206 0 00.87-.366l6.555-6.555a1.237 1.237 0 00-1.749-1.749l-4.44 4.44V1.236a1.236 1.236 0 10-2.472 0v21.22l-4.44-4.44a1.232 1.232 0 00-1.749 0z"/><path d="M40.454 28.142l-4.3-15.563a1.253 1.253 0 00-.677-.8l-.119-.055a1.26 1.26 0 00-.513-.11h-7.756a1.236 1.236 0 100 2.472h6.921l3.634 13.164h-9.613a1.231 1.231 0 00-1.231 1.24v1.117a2.965 2.965 0 01-2.966 2.966h-7.548a2.965 2.965 0 01-2.966-2.966V28.49a1.231 1.231 0 00-1.236-1.236H2.847L6.5 14.062h6.921a1.236 1.236 0 000-2.472H5.658a1.26 1.26 0 00-.513.11l-.119.055a1.227 1.227 0 00-.677.8l-4.3 15.563a1.362 1.362 0 00-.046.33v6.491a8.927 8.927 0 008.917 8.917h22.663a8.927 8.927 0 008.917-8.917v-6.463a.958.958 0 00-.046-.334zm-2.426 6.793a6.454 6.454 0 01-6.445 6.445H8.917a6.454 6.454 0 01-6.445-6.445v-5.209h8.395a5.442 5.442 0 005.438 5.31h7.543a5.442 5.442 0 005.438-5.31h8.761v5.209z"/></svg><svg viewBox="0 0 24 24" id="edit" xmlns="http://www.w3.org/2000/svg"><path d="M18.93 5.07a3.62 3.62 0 00-5.11 0L5.94 13a.86.86 0 00-.2.33L4 19a.84.84 0 00.19.79A.79.79 0 005 20l5.77-1.61a.7.7 0 00.34-.2l7.83-7.88a3.7 3.7 0 00-.01-5.24zm-8.78 11.82L6 18.06 7.18 14l5.87-5.9L16 11zm7.68-7.74l-.74.74-2.93-3 .73-.73a2.07 2.07 0 012.92 0 2.09 2.09 0 010 3z"/></svg><svg viewBox="0 0 25.22 25.2" id="error" xmlns="http://www.w3.org/2000/svg"><path d="M18.3 8.58a1.17 1.17 0 000-1.66 1.2 1.2 0 00-1.67 0l-4 4-4-4a1.2 1.2 0 00-1.67 0 1.17 1.17 0 000 1.66l4 4-4 4a1.17 1.17 0 000 1.66 1.21 1.21 0 001.66 0l4-4 4 4a1.2 1.2 0 00.83.35 1.15 1.15 0 00.84-.35 1.17 1.17 0 000-1.66l-4-4 4-4z"/><path d="M21.52 3.69a12.6 12.6 0 100 17.82 12.6 12.6 0 000-17.82zm-1.67 16.15a10.24 10.24 0 110-14.48 10.23 10.23 0 010 14.48z"/></svg><svg viewBox="0 0 24 24" id="evidance" xmlns="http://www.w3.org/2000/svg"><path d="M4.07 21.9a2.43 2.43 0 01-1.95-1 .46.46 0 00-.07-.07 1.43 1.43 0 00-.11-.21l-.1-.21a.37.37 0 010-.15c0-.1-.07-.2-.1-.3a2.5 2.5 0 01-.05-.47V4.55A2.46 2.46 0 014.08 2.1h12.6a2.44 2.44 0 011.95 1l.06.07a2.12 2.12 0 01.11.21.53.53 0 01.11.21s0 .1.06.15a.37.37 0 000 .09H4.08a.7.7 0 00-.71.69v14.92a.7.7 0 00.69.68h12.61a.82.82 0 00.31-.07h2a2.45 2.45 0 01-2.34 1.82zm13.53-3.32a.67.67 0 01-.16-.48v-1.84a3.52 3.52 0 01-1.1-.39 4 4 0 01-.91-.67v.54c0 .22 0 .4-.15.48a.78.78 0 01-.55.14.74.74 0 01-.56-.14C14 16.14 14 16 14 15.74v-2.33a.52.52 0 01.16-.47.8.8 0 01.56-.15.49.49 0 01.31.09.75.75 0 01.2.3 2.51 2.51 0 00.8 1.15 3.16 3.16 0 001.4.56V12.2c-.34 0-.68-.1-1-.16a7 7 0 01-.92-.27 2.46 2.46 0 01-.6-.32 1.61 1.61 0 01-.47-.43 2.13 2.13 0 01-.3-.58 2.16 2.16 0 01-.12-.76 2.38 2.38 0 01.26-1.14 2.65 2.65 0 01.72-.85 3.87 3.87 0 011.07-.5A5.1 5.1 0 0117.44 7V5.47A.75.75 0 0117.6 5a.74.74 0 01.52-.15.72.72 0 01.51.15.66.66 0 01.16.5v1.63a3.91 3.91 0 01.92.39 3.18 3.18 0 01.76.56v-.45a.67.67 0 01.16-.47.84.84 0 01.57-.16.77.77 0 01.55.15.59.59 0 01.16.47v1.85a.62.62 0 01-.16.49.83.83 0 01-.55.14.49.49 0 01-.48-.25 2.51 2.51 0 00-.78-.93 3.7 3.7 0 00-1.15-.46v2.4a8.83 8.83 0 011 .16 5 5 0 01.92.24 4.07 4.07 0 01.66.33 1.72 1.72 0 01.51.46 2.06 2.06 0 01.35.61 2.74 2.74 0 01.12.81 3.08 3.08 0 01-.23 1.16 2.7 2.7 0 01-.7.9 3.37 3.37 0 01-1.12.6 6 6 0 01-1.52.23v1.73a.61.61 0 01-.16.48.75.75 0 01-.51.15.81.81 0 01-.52-.15zM18.79 15a2.47 2.47 0 001.53-.46 1.29 1.29 0 00.53-1 .65.65 0 00-.24-.54 1.29 1.29 0 00-.61-.4 2.65 2.65 0 00-.57-.15l-.67-.1zm-2.73-6.25a1.1 1.1 0 00-.5.93.63.63 0 00.22.51 1.21 1.21 0 00.57.3 2.19 2.19 0 00.5.14c.18 0 .38.07.59.09V8.41a2.57 2.57 0 00-1.38.34zM5.78 17.83v-1.51h5.9v1.51zm0-4.83v-1.51h5.9V13zm0-4.83V6.66h5.9v1.51z"/></svg><svg viewBox="0 0 24 24" id="external_link" xmlns="http://www.w3.org/2000/svg"><path d="M5 3c-1.094 0-2 .906-2 2v14c0 1.094.906 2 2 2h14c1.094 0 2-.906 2-2v-7h-2v7H5V5h7V3zm9 0v2h3.586l-9.293 9.293 1.414 1.414L19 6.414V10h2V3z"/></svg><svg viewBox="0 0 24 24" id="graph" xmlns="http://www.w3.org/2000/svg"><path d="M18.11 19.5a.38.38 0 01-.37-.38V4.88a.38.38 0 01.37-.38h2.53a.37.37 0 01.37.38v14.24a.37.37 0 01-.37.38zm-7.38 0a.38.38 0 01-.37-.38V8.27a.38.38 0 01.37-.38h2.54a.38.38 0 01.37.38v10.85a.38.38 0 01-.37.38zm-7.38 0a.36.36 0 01-.35-.38v-8.51a.36.36 0 01.36-.37h2.53a.38.38 0 01.37.37v8.51a.38.38 0 01-.37.38z"/></svg><svg viewBox="0 0 24 24" id="important" xmlns="http://www.w3.org/2000/svg"><path fill="none" d="M0 0h24v24H0V0z"/><path d="M3.5 18.99l11 .01c.67 0 1.27-.33 1.63-.84L20.5 12l-4.37-6.16c-.36-.51-.96-.84-1.63-.84l-11 .01L8.34 12 3.5 18.99z"/></svg><svg viewBox="0 0 24 24" id="info" xmlns="http://www.w3.org/2000/svg"><path d="M2 12a10 10 0 1110 10A10 10 0 012 12zm2 0a8 8 0 108-8 8 8 0 00-8 8zm7 5v-6a1 1 0 012 0v6a1 1 0 01-2 0zm0-9.67a.95.95 0 111 .95.95.95 0 01-1-.95z"/></svg><svg viewBox="0 0 24 24" id="location" xmlns="http://www.w3.org/2000/svg"><path d="M12 6.5a3.34 3.34 0 013.5 3.16c0 1.45-1.61 4.18-3.5 6.57-1.89-2.39-3.5-5.12-3.5-6.57A3.34 3.34 0 0112 6.5m0-3a6.35 6.35 0 00-6.5 6.16c0 4.21 5.82 10.4 6.07 10.66a.6.6 0 00.85 0c.24-.26 6.06-6.45 6.06-10.66A6.35 6.35 0 0012 3.5z"/></svg><svg viewBox="0 0 24 24" id="nmi" xmlns="http://www.w3.org/2000/svg"><path d="M18.45 7.85a2.29 2.29 0 10-2.18-1.56l-2.42 2.42a2.92 2.92 0 00-2.81 0L9.27 6.94a1.62 1.62 0 00.08-.49 1.7 1.7 0 10-1.7 1.7 1.67 1.67 0 00.49-.08l1.77 1.78a2.9 2.9 0 000 2.8L6.7 15.86a2.33 2.33 0 00-1.15-.31 2.33 2.33 0 102.17 1.56L11 13.78a2.7 2.7 0 00.61.25v2.26a2.3 2.3 0 101.6 0V14a2.63 2.63 0 00.6-.25l1.77 1.78a1.61 1.61 0 00-.07.49 1.72 1.72 0 101.2-1.62L15 12.65a2.83 2.83 0 000-2.8l2.31-2.31a2.34 2.34 0 001.14.31zm0-3.25a1 1 0 11-.95 1 1 1 0 01.95-1zM7.65 5.85a.6.6 0 110 1.2.6.6 0 110-1.2zm6.35 5.4a1.55 1.55 0 11-1.55-1.55A1.56 1.56 0 0114 11.25zm-1.55 8.15a.95.95 0 111-.95.95.95 0 01-1 .95zm-6.9-2.5a1 1 0 11-1 1 1 1 0 011-1zm11.7-.25a.6.6 0 110-1.2.6.6 0 010 1.2z"/></svg><svg viewBox="0 0 24 24" id="note" xmlns="http://www.w3.org/2000/svg"><path d="M18.12 14.52a1.26 1.26 0 01-.38.93l-2.3 2.29a1.29 1.29 0 01-.93.39H7.19a1.33 1.33 0 01-1.32-1.32V7.19a1.33 1.33 0 011.32-1.32h9.62a1.33 1.33 0 011.32 1.32zm-3.5 2.18l2.08-2.07h-2.08zm2.19-9.51H7.19v9.62h6.12V14a.65.65 0 01.66-.66h2.84z"/></svg><svg viewBox="0 0 24 24" id="options" xmlns="http://www.w3.org/2000/svg"><path d="M12 9.74A2.24 2.24 0 1014.25 12a2.2 2.2 0 00-.66-1.57A2.15 2.15 0 0012 9.74zM9.75 6.49A2.24 2.24 0 1112 8.74a2.2 2.2 0 01-1.57-.66 2.15 2.15 0 01-.68-1.59zm0 11A2.24 2.24 0 1112 19.74a2.2 2.2 0 01-1.57-.66 2.15 2.15 0 01-.68-1.59z"/></svg><svg viewBox="0 0 25.22 25.2" id="page" xmlns="http://www.w3.org/2000/svg"><path d="M21.81 5.49l-5-4.93a1 1 0 00-.69-.29H5.61a2.48 2.48 0 00-2.48 2.46v19.75a2.47 2.47 0 002.48 2.45h14a2.47 2.47 0 002.47-2.45V6.19a1 1 0 00-.27-.7zm-3-.28h-1.19a.52.52 0 01-.53-.51V3.57zM19.62 23h-14a.53.53 0 01-.53-.52V2.73a.52.52 0 01.53-.51h9.53V4.7a2.46 2.46 0 002.47 2.45h2.53v15.32a.53.53 0 01-.53.53z"/><path d="M16.29 12.82H8.93a1.09 1.09 0 000 2.17h7.36a1.09 1.09 0 000-2.17zm0-4.24H8.93a1.09 1.09 0 000 2.17h7.36a1.09 1.09 0 000-2.17zm0 8.48H8.93a1.09 1.09 0 000 2.17h7.36a1.09 1.09 0 000-2.17z"/></svg><svg viewBox="0 0 25.22 25.2" id="pending_approval" xmlns="http://www.w3.org/2000/svg"><path d="M21.74 20.4l-1.38-1v-3a.48.48 0 00-.14-.36.54.54 0 00-.36-.14h-.71a.5.5 0 00-.35.14.48.48 0 00-.15.36V20a.52.52 0 00.21.41l.23.17 1.64 1.2a.39.39 0 00.26.09h.1a.61.61 0 00.33-.21l.38-.57a.52.52 0 00.11-.36.36.36 0 000-.11.45.45 0 00-.17-.22z"/><path d="M24.44 16.65a2.12 2.12 0 00-.12-.2 5.42 5.42 0 00-1.61-1.66l-.35-.23a5.67 5.67 0 00-7.78 2.09 5.6 5.6 0 000 5.7 2.54 2.54 0 00.23.34 5.24 5.24 0 001.66 1.62l.18.12a5.7 5.7 0 007.79-7.78zm-1.33 4.93a4.29 4.29 0 01-1.52 1.53 4.15 4.15 0 01-3.23.38 3.44 3.44 0 01-.93-.38 4 4 0 01-1.07-.9 3.64 3.64 0 01-.46-.63 4.15 4.15 0 010-4.17 4.21 4.21 0 011.53-1.52 4 4 0 012.08-.56 4.11 4.11 0 012.08.56 3.57 3.57 0 01.64.46 4.08 4.08 0 01.88 1.06 3.82 3.82 0 01.39.93 3.75 3.75 0 01.18 1.16 4.12 4.12 0 01-.57 2.08z"/><path d="M13.8 23.39a4 4 0 01-.28-.43v-.05h-1A10.46 10.46 0 1123 12.48v1h.06a3.41 3.41 0 01.42.28A6.08 6.08 0 0124.72 15a12 12 0 00.28-2.52A12.48 12.48 0 1012.49 25a12.2 12.2 0 002.51-.29 6.12 6.12 0 01-1.2-1.32z"/><path d="M16.47 8.51l-5.82 5.82-2.13-2.13a1 1 0 00-1.42 0 1 1 0 000 1.38l2.84 2.84a1 1 0 001.42 0l6.54-6.49a1 1 0 000-1.42 1 1 0 00-1.43 0z"/></svg><svg viewBox="0 0 25.22 25.2" id="pending_submission" xmlns="http://www.w3.org/2000/svg"><path d="M19.81 19.5v-3a.46.46 0 00-.14-.36.52.52 0 00-.36-.14h-.69a.5.5 0 00-.35.14.51.51 0 00-.15.36v3.56a.51.51 0 00.21.41l1.84 1.36a.52.52 0 00.29.09h.1a.54.54 0 00.32-.21l.38-.56a.52.52 0 00.11-.36.49.49 0 00-.2-.35z"/><path d="M23.84 16.76a5.63 5.63 0 00-10.51 2.81 5.49 5.49 0 00.77 2.82 5.63 5.63 0 109.74-5.63zm-1.32 4.87a4.1 4.1 0 01-7.11 0 4.07 4.07 0 01.5-4.8 4.38 4.38 0 011-.82 3.82 3.82 0 011.61-.52h.45a4.05 4.05 0 013.55 2.06 4 4 0 010 4.08z"/><path d="M7.1 12.77h11.19a5.07 5.07 0 01.68 0 6.73 6.73 0 012.31.41 6.86 6.86 0 011 .43l1.67-.87H24l.37-.37.15-.3v-.6l-.07-.07v-.07l-.2-.22-.15-.12L2.06.09A1 1 0 00.92.28a1 1 0 00-.2 1.13l4.62 10.38-4.28 10.76a1 1 0 00.6 1.3 1 1 0 00.34.06 1 1 0 00.46-.11l9.72-5a5.29 5.29 0 01.19-1 6.78 6.78 0 01.69-1.59.75.75 0 00.07-.12l-9.22 4.7zM3.66 3.11l15.59 7.66H7.06z"/></svg><svg viewBox="0 0 24 24" id="pictures" xmlns="http://www.w3.org/2000/svg"><path d="M17.25 16.37h-1.31v.28a.24.24 0 01-.06.11.13.13 0 01-.11 0H5.6a.17.17 0 01-.16-.16V10a.13.13 0 010-.11.24.24 0 01.11-.06h.27V8.5h-.38a1.24 1.24 0 00-.93.38 1.31 1.31 0 00-.39.93v7a1.33 1.33 0 001.32 1.32h10.5a1.31 1.31 0 00.93-.39 1.24 1.24 0 00.38-.93zm1.15-9.18a.17.17 0 01.16.16V14a.14.14 0 010 .11.24.24 0 01-.11.06H8.22a.17.17 0 01-.1-.06.13.13 0 01-.06-.11V7.35a.14.14 0 01.06-.11.12.12 0 01.1 0zm.16-1.31H8.06a1.26 1.26 0 00-.93.38 1.24 1.24 0 00-.38.93v7a1.3 1.3 0 001.31 1.31h10.5a1.24 1.24 0 00.93-.38 1.31 1.31 0 00.39-.93v-7a1.33 1.33 0 00-1.32-1.32zm-7.22 3.06a1 1 0 00-.34-.78 1.1 1.1 0 00-1.87.78 1.1 1.1 0 00.32.78 1.1 1.1 0 001.87-.78zm-2 2.62v1.32h7.88v-2.19l-2-2a.34.34 0 00-.44 0L12 11.56l-1.09-1.09a.34.34 0 00-.44 0z"/></svg><svg viewBox="0 0 24 24" id="play" xmlns="http://www.w3.org/2000/svg"><path d="M16.85 11.27l-3.1-1.81L11.24 8 8 6.18c-.69-.41-1.37-.08-1.37.72v10.2c0 .8.68 1.13 1.37.72L11.17 16c.7-.4 1.86-1.06 2.55-1.47l3.12-1.81a.77.77 0 000-1.46z"/></svg><svg viewBox="0 0 39.95 39.91" id="promo_connectivity" xmlns="http://www.w3.org/2000/svg"><path d="M10.25 39.71h-4a2.17 2.17 0 01-2.15-2.19V24a2.17 2.17 0 012.12-2.2h4a2.18 2.18 0 012.19 2.2v13.52a2.18 2.18 0 01-2.16 2.19zm-3-3.19h2.02V25H7.2zM22 39.71h-4a2.17 2.17 0 01-2.15-2.19V20.26A2.17 2.17 0 0118 18.07h4a2.19 2.19 0 012.16 2.19v17.26A2.18 2.18 0 0122 39.71zm-3-3.19h2V21.26h-2.06zm14.73 3.19h-4a2.19 2.19 0 01-2.16-2.19V14.87a2.17 2.17 0 012.16-2.18h4a2.16 2.16 0 012.15 2.18v22.65a2.17 2.17 0 01-2.15 2.19zm-3-3.19h2.07V15.86h-2.12zm.69-33.46a1.52 1.52 0 00-.86-.79L25.09.3a1.52 1.52 0 00-2 .92 1.58 1.58 0 00.93 2l2.12.78L4.92 14.84l-.62.34.08.15a1.64 1.64 0 001.34 2.6l.07.14L27.27 7l-.62 1.75a1.57 1.57 0 00.93 2 1.54 1.54 0 002-.92l1.95-5.58a1.54 1.54 0 00-.11-1.19z"/></svg><svg viewBox="0 0 39.95 39.91" id="promo_e_invoice" xmlns="http://www.w3.org/2000/svg"><path d="M39.65 21.24a3.89 3.89 0 00-.65-1.19 3.48 3.48 0 00-1-.88 8.28 8.28 0 00-1.26-.64 10.71 10.71 0 00-1.74-.46c-.65-.15-1.28-.22-1.94-.31v-4.6a6.68 6.68 0 012.2.88 4.64 4.64 0 011.51 1.78 1 1 0 00.91.49 1.75 1.75 0 001.03-.31 1.25 1.25 0 00.29-.9v-3.54a1.24 1.24 0 00-.31-.9 1.46 1.46 0 00-1.07-.28 1.58 1.58 0 00-1.09.28 1.19 1.19 0 00-.3.9v.86a7 7 0 00-1.46-1.08A8.84 8.84 0 0033 10.6V7.4a1.25 1.25 0 00-.31-.94 1.83 1.83 0 00-2 0 1.4 1.4 0 00-.3.94v3a10.3 10.3 0 00-2.6.33 7.07 7.07 0 00-2.06 1 5.25 5.25 0 00-1.33 1.57 4.79 4.79 0 00-.5 2.2 4.5 4.5 0 00.24 1.5 4 4 0 00.57 1.12 3 3 0 00.89.82 4.29 4.29 0 001.16.61 11.67 11.67 0 001.77.53c.58.11 1.24.22 1.9.31v5.17a5.83 5.83 0 01-2.69-1.08 4.9 4.9 0 01-1.55-2.2 1.28 1.28 0 00-.37-.57 1 1 0 00-.61-.18 1.43 1.43 0 00-1.07.29 1 1 0 00-.3.9v4.48c0 .42.06.75.3.9a1.43 1.43 0 001.07.29 1.52 1.52 0 001.07-.29c.22-.15.28-.48.28-.9v-1a8 8 0 001.75 1.3 7.55 7.55 0 002.12.75v3.52a1.25 1.25 0 00.3.92 1.83 1.83 0 002 0 1.21 1.21 0 00.31-.92v-3.43a10.7 10.7 0 002.92-.44 6.4 6.4 0 002.14-1.14A5.21 5.21 0 0039.43 25a5.56 5.56 0 00.44-2.24 5.36 5.36 0 00-.22-1.52zm-9.23-3.74c-.39 0-.78-.13-1.13-.18a4.54 4.54 0 01-1-.26 2.39 2.39 0 01-1.09-.57 1.22 1.22 0 01-.42-1 2.06 2.06 0 011-1.78 4.9 4.9 0 012.64-.66zM36 24.78a4.89 4.89 0 01-2.94.88v-5c.46.07.87.11 1.29.2a4.62 4.62 0 011.09.29 2.44 2.44 0 011.11.64 1.24 1.24 0 01.46 1 2.47 2.47 0 01-1 2zM19.35 9.69v2.9H8v-2.9zm0 9.31v2.9H8V19zm0 9.25v2.9H8v-2.9z"/><path d="M33.45 35.47A4.68 4.68 0 0129 39H4.74A4.72 4.72 0 011 37l-.12-.14c-.07-.1-.12-.26-.22-.4l-.19-.4a.75.75 0 01-.09-.3 7.61 7.61 0 01-.19-.57 3.87 3.87 0 01-.08-.9V5.65A4.71 4.71 0 014.75.94H29a4.63 4.63 0 013.75 2 .33.33 0 01.12.14 2.56 2.56 0 01.22.4 1.39 1.39 0 01.21.4c.05.08.05.2.1.29s0 .1 0 .17H4.75A1.35 1.35 0 003.4 5.65v28.61a.05.05 0 000 .05 1.33 1.33 0 001.32 1.3H29a1.29 1.29 0 00.6-.14z"/></svg><svg viewBox="0 0 39.95 39.91" id="promo_tailor" xmlns="http://www.w3.org/2000/svg"><path d="M32.42 21h-13.8V7.25A1.58 1.58 0 0017 5.67a17 17 0 1017 17A1.59 1.59 0 0032.42 21zM17 24.21h13.75A13.8 13.8 0 1115.46 8.92v13.71A1.6 1.6 0 0017 24.21z"/><path d="M35.63 6.06A17 17 0 0022.91.33a1.58 1.58 0 00-1.58 1.58v15.38a1.6 1.6 0 001.58 1.59h15.38a1.6 1.6 0 001.58-1.59v-.06a17 17 0 00-4.24-11.17zm1 9.65H24.49V3.59a13.8 13.8 0 0112.12 12.12z"/></svg><svg viewBox="0 0 24 24" id="recovery" xmlns="http://www.w3.org/2000/svg"><path d="M19.28 3.73v3.82a.92.92 0 01-.63.88L14.83 9.7a.88.88 0 01-.71 0 .86.86 0 01-.46-.54.92.92 0 01.59-1.18l2.38-.79L16.5 7a6.71 6.71 0 00-11.21 5 .93.93 0 11-1.86 0 8.47 8.47 0 012.4-6 8.6 8.6 0 016-2.61H12a8.52 8.52 0 015.27 1.83l.16.13V3.73a.93.93 0 01.93-.93.92.92 0 01.92.93zM20.57 12a8.59 8.59 0 01-8.41 8.57H12a8.45 8.45 0 01-5.26-1.83l-.17-.13v1.68a.93.93 0 01-1.85 0v-3.83a.93.93 0 01.63-.89l3.81-1.27a1 1 0 01.29-.05.93.93 0 01.88.64.92.92 0 01-.58 1.17l-2.38.8.12.12a6.72 6.72 0 0011.22-5 .9.9 0 01.27-.65.93.93 0 011.31 0 .9.9 0 01.28.67z"/></svg><svg viewBox="0 0 25.22 25.2" id="refresh" xmlns="http://www.w3.org/2000/svg"><path d="M22.24 1.71v4.56a1.11 1.11 0 01-.82 1.07l-5 1.51a1.25 1.25 0 01-.93-.06 1.1 1.1 0 01-.6-.65 1 1 0 01.07-.85 1.16 1.16 0 01.7-.55l3.13-1-.17-.14a9.34 9.34 0 00-5.91-2.08c-4.85 0-8.81 3.61-8.81 8a1.16 1.16 0 01-1.22 1.11 1.17 1.17 0 01-1.24-1.03 9.69 9.69 0 013.15-7.13 11.83 11.83 0 017.89-3.11h.21a11.87 11.87 0 016.91 2.19l.21.15v-2A1.2 1.2 0 0121 .6a1.17 1.17 0 011.24 1.11zm1.54 11.89c0 5.56-4.93 10.15-11 10.24h-.23a11.8 11.8 0 01-6.9-2.2l-.25-.14v2a1.15 1.15 0 01-1.2 1.1A1.17 1.17 0 013 23.51v-4.58a1.12 1.12 0 01.83-1.06l5-1.52a1.31 1.31 0 01.38-.06 1.22 1.22 0 011.16.76 1.09 1.09 0 01-.67 1.38h-.09l-3.13 1 .16.13a9.29 9.29 0 005.92 2.08c4.84 0 8.79-3.61 8.8-8a1 1 0 01.36-.79 1.31 1.31 0 011.72 0 1.08 1.08 0 01.34.75z"/></svg><svg viewBox="0 0 25.22 25.2" id="refund" xmlns="http://www.w3.org/2000/svg"><path d="M16.39 8H4.58l3.56-4a1.12 1.12 0 00-1.67-1.51L1.81 7.71a2.09 2.09 0 000 2.75l4.66 5.22a1.16 1.16 0 001.58.09 1.12 1.12 0 00.09-1.58l-3.56-4h11.8a5.33 5.33 0 010 10.65h-3.47a1.12 1.12 0 000 2.23h3.48A7.56 7.56 0 1016.38 8z"/></svg><svg viewBox="0 0 24 24" id="reload" xmlns="http://www.w3.org/2000/svg"><path d="M17.65 6.35A7.958 7.958 0 0012 4c-4.42 0-7.99 3.58-7.99 8s3.57 8 7.99 8c3.73 0 6.84-2.55 7.73-6h-2.08A5.99 5.99 0 0112 18c-3.31 0-6-2.69-6-6s2.69-6 6-6c1.66 0 3.14.69 4.22 1.78L13 11h7V4l-2.35 2.35z"/><path d="M0 0h24v24H0z" fill="none"/></svg><svg viewBox="0 0 25.22 25.2" id="scope" xmlns="http://www.w3.org/2000/svg"><path d="M.89 13.49h2a9.8 9.8 0 008.87 8.87v2a.9.9 0 001.79 0v-2a9.8 9.8 0 008.86-8.87h2a.89.89 0 100-1.78h-2a9.8 9.8 0 00-8.86-8.87v-2a.9.9 0 00-1.79 0v2a9.8 9.8 0 00-8.87 8.87h-2a.87.87 0 00-.89.87.89.89 0 00.89.91zm7.34-1.78H4.64a8 8 0 017.08-7.08v3.59a.9.9 0 101.79 0V4.63a8 8 0 017.07 7.08H17a.89.89 0 000 1.78h3.59a8 8 0 01-7.07 7.08V17a.9.9 0 00-1.79 0v3.59a8 8 0 01-7.08-7.08h3.58a.9.9 0 00.9-.89.91.91 0 00-.9-.89z"/></svg><svg viewBox="0 0 24 24" id="search" xmlns="http://www.w3.org/2000/svg"><path d="M20.85 19.57L16.46 15a7.45 7.45 0 10-5.7 2.68A7.35 7.35 0 0015 16.29l4.42 4.64a1 1 0 001.37 0 1 1 0 00.06-1.36zm-10.1-15a5.56 5.56 0 11-5.51 5.6 5.55 5.55 0 015.52-5.55z"/></svg><svg viewBox="0 0 24 24" id="star" xmlns="http://www.w3.org/2000/svg"><path d="M0 0h24v24H0z" fill="none"/><path d="M12 17.27L18.18 21l-1.64-7.03L22 9.24l-7.19-.61L12 2 9.19 8.63 2 9.24l5.46 4.73L5.82 21z"/><path d="M0 0h24v24H0z" fill="none"/></svg><svg viewBox="0 0 24 24" id="star_border" xmlns="http://www.w3.org/2000/svg"><path d="M22 9.24l-7.19-.62L12 2 9.19 8.63 2 9.24l5.46 4.73L5.82 21 12 17.27 18.18 21l-1.63-7.03L22 9.24zM12 15.4l-3.76 2.27 1-4.28-3.32-2.88 4.38-.38L12 6.1l1.71 4.04 4.38.38-3.32 2.88 1 4.28L12 15.4z"/><path d="M0 0h24v24H0z" fill="none"/></svg><svg viewBox="0 0 25.22 25.2" id="submit" xmlns="http://www.w3.org/2000/svg"><path d="M22.28 12.35v-.14l-.06-.15-.1-.06-.09-.1-.09-.07L4.08 3A.78.78 0 003 3.37.76.76 0 003 4l3.75 8.44L3.3 21.2a.83.83 0 00.2.87.81.81 0 00.53.2.74.74 0 00.36-.09l17.53-9.08.08-.1.09-.1.06-.1.05-.1v-.28zm-14.15-.68l-2.8-6.29 12.8 6.29zm10.15 1.57L5.53 19.83l2.62-6.59z"/></svg><svg viewBox="0 0 24 24" id="support" xmlns="http://www.w3.org/2000/svg"><path d="M19.27 9.3v-.53a7.46 7.46 0 00-1.95-5.12 6.72 6.72 0 00-5-2.15h-.64a6.72 6.72 0 00-5 2.15 7.46 7.46 0 00-1.95 5.12v.53a3.09 3.09 0 00-2.62 3.06v1.23a3.09 3.09 0 003.09 3.09h1.58a.81.81 0 00.8-.79v-5.83a.8.8 0 00-.8-.79h-.46v-.5a5.4 5.4 0 015.12-5.67h.88a5.4 5.4 0 015.36 5.44 1.93 1.93 0 010 .24v.5h-.46a.79.79 0 00-.79.79v5.82a.81.81 0 00.79.8h.41a3.08 3.08 0 01-2.43 2.85 2.09 2.09 0 00-1.9-1.21H12a2.09 2.09 0 000 4.18h1.3a2.1 2.1 0 002-1.36 5 5 0 001.67-.6 4.76 4.76 0 002.3-3.89 3.09 3.09 0 002.66-3.06v-1.24a3.08 3.08 0 00-2.66-3.06zm1 3.06v1.23a1.51 1.51 0 01-1.5 1.5H18v-4.24h.79a1.51 1.51 0 011.5 1.5zM6 10.86v4.23h-.79a1.5 1.5 0 01-1.5-1.5v-1.23a1.5 1.5 0 011.5-1.5zm7.3 10.05H12a.5.5 0 01-.5-.5.5.5 0 01.5-.5h1.3a.51.51 0 01.5.5.5.5 0 01-.5.5z"/></svg><svg viewBox="0 0 24 24" id="tax_tailor" xmlns="http://www.w3.org/2000/svg"><path d="M21.9 20.92L3.07 2.11a.68.68 0 00-.49-.2.68.68 0 00-.68.68v18.82a.69.69 0 00.68.68h18.84a.68.68 0 00.68-.68.7.7 0 00-.2-.49zm-5.17-1.41a.69.69 0 00-.69.69v.52h-1v-.52a.69.69 0 00-.69-.69.68.68 0 00-.68.69v.52h-1v-.52a.68.68 0 00-.68-.69.69.69 0 00-.69.69v.52h-1v-.52a.69.69 0 00-.69-.69.68.68 0 00-.61.69v.52H8v-.52a.69.69 0 10-1.38 0v.52h-1v-.52a.69.69 0 10-1.37 0v.52h-.98V18.5h.56a.69.69 0 100-1.37h-.56V15h.56a.69.69 0 00.69-.69.68.68 0 00-.69-.68h-.56v-2.16h.56a.68.68 0 00.69-.68.69.69 0 00-.69-.69h-.56V8h.56a.69.69 0 100-1.37h-.56V4.25l16.49 16.47h-2.35v-.52a.69.69 0 00-.68-.69z"/><path d="M6.66 10.59a.68.68 0 00-1 0 .67.67 0 00-.2.48v6.74a.68.68 0 00.69.69h6.75a.69.69 0 00.68-.69.67.67 0 00-.2-.48zm4.61 6.54H6.86v-4.4z"/></svg><svg viewBox="0 0 191.667 191.667" id="tick" xmlns="http://www.w3.org/2000/svg"><path d="M95.833 0C42.991 0 0 42.99 0 95.833s42.991 95.834 95.833 95.834 95.833-42.991 95.833-95.834S148.676 0 95.833 0zm55.029 79.646l-60.207 60.207a13.463 13.463 0 01-9.583 3.969c-3.62 0-7.023-1.409-9.583-3.969l-30.685-30.685a13.464 13.464 0 01-3.97-9.583c0-3.621 1.41-7.024 3.97-9.584a13.46 13.46 0 019.583-3.97c3.62 0 7.024 1.41 9.583 3.971l21.101 21.1 50.623-50.623a13.463 13.463 0 019.583-3.969c3.62 0 7.023 1.409 9.583 3.969 5.286 5.286 5.286 13.883.002 19.167z"/></svg><svg viewBox="0 0 25.22 25.2" id="trend_down" xmlns="http://www.w3.org/2000/svg"><path d="M16.37.57A12.61 12.61 0 0012.62 0a11 11 0 00-1.29.07 12.59 12.59 0 00-7.19 21.86c.29.27.6.52.92.77l.5.35c.34.22.68.43 1 .63a11.53 11.53 0 001.68.76 12.17 12.17 0 001.79.5 11.52 11.52 0 001.87.24h.67a12.61 12.61 0 003.75-.57q.59-.19 1.14-.42A12.6 12.6 0 0016.37.57zM12.62 23.2a10.6 10.6 0 1110.6-10.6 10.62 10.62 0 01-10.6 10.6z"/><path d="M16.33 13.61l-2.5 2.58V6a1.18 1.18 0 00-2.4 0v10.22l-2.5-2.58a1.17 1.17 0 00-1.64 0 1.24 1.24 0 000 1.72L11.77 20a1.16 1.16 0 001.64 0L18 15.36a1.24 1.24 0 000-1.72 1.17 1.17 0 00-1.67-.03z"/></svg><svg viewBox="0 0 25.22 25.2" id="trend_nutral" xmlns="http://www.w3.org/2000/svg"><path d="M13.32.07h-.69a10.86 10.86 0 00-1.28.07 11.8 11.8 0 00-3 .69 12.55 12.55 0 00-4.53 20.7c.29.28.58.55.89.81a10.9 10.9 0 001.39 1.04c.35.21.7.4 1.06.58a11.41 11.41 0 002.29.84l.63.14a11.4 11.4 0 001.86.24h.67a11.73 11.73 0 001.39-.05 12.59 12.59 0 007.13-3.19A12.57 12.57 0 0013.32.07zm-.69 23.13a10.58 10.58 0 1110.58-10.58A10.6 10.6 0 0112.63 23.2z"/><path d="M17.85 14.2H7.42a.8.8 0 00-.8.81v.22a.8.8 0 00.8.81h10.43a.81.81 0 00.81-.81V15a.81.81 0 00-.81-.8zm0-4.99H7.42a.8.8 0 00-.8.81v.22a.8.8 0 00.8.81h10.43a.81.81 0 00.81-.81V10a.81.81 0 00-.81-.79z"/></svg><svg viewBox="0 0 25.22 25.2" id="trend_up" xmlns="http://www.w3.org/2000/svg"><path d="M21.5 3.73c-.29-.28-.58-.55-.89-.81a10.9 10.9 0 00-1.47-1 8.36 8.36 0 00-1.06-.58 11.41 11.41 0 00-2.31-.89l-.63-.14a11.4 11.4 0 00-1.86-.24h-.67a11.73 11.73 0 00-1.33.07A12.19 12.19 0 007.71 1a12.27 12.27 0 00-3.56 2.31 12.57 12.57 0 007.8 21.85h.69a10.86 10.86 0 001.28-.07 11.8 11.8 0 003-.69A12.55 12.55 0 0021.5 3.73zm-8.89 19.48a10.58 10.58 0 1110.58-10.58 10.6 10.6 0 01-10.58 10.58z"/><path d="M13.45 5.22a1.14 1.14 0 00-1.63 0L7.27 9.87a1.23 1.23 0 000 1.71 1.14 1.14 0 001.63 0L11.43 9v10.17a1.18 1.18 0 002.36.07V9l2.5 2.57a1.14 1.14 0 001.63 0 1.23 1.23 0 000-1.71z"/></svg><svg viewBox="0 0 46.178 42.684" id="upload_file" xmlns="http://www.w3.org/2000/svg"><path d="M37.556 11.148A13.376 13.376 0 0012.772 6.7a7.662 7.662 0 00-1.405-.133 7.331 7.331 0 00-7.321 7.321 8 8 0 00.154 1.524A10.188 10.188 0 000 23.626a10.892 10.892 0 002.763 7.207A9.862 9.862 0 009.6 34.27h8.242a1.282 1.282 0 100-2.564H9.714c-3.884-.237-7.15-3.931-7.15-8.09a7.611 7.611 0 013.77-6.552 1.292 1.292 0 00.56-1.557 4.652 4.652 0 01-.285-1.633 4.766 4.766 0 014.757-4.757 4.676 4.676 0 011.624.285 1.288 1.288 0 001.6-.655 10.811 10.811 0 0120.539 3.561 1.28 1.28 0 001.071 1.138 9.241 9.241 0 01-.876 18.254h-7a1.282 1.282 0 000 2.564h7.141a11.361 11.361 0 007.616-3.76 11.819 11.819 0 00-5.527-19.352z"/><path d="M30.786 24.841a1.278 1.278 0 000-1.814l-6.79-6.79a1.3 1.3 0 00-.9-.38 1.257 1.257 0 00-.9.38l-6.79 6.79a1.287 1.287 0 00.9 2.194 1.251 1.251 0 00.9-.38l4.605-4.605v21.166a1.282 1.282 0 102.564 0V20.236l4.605 4.605a1.267 1.267 0 001.806 0z"/></svg><svg viewBox="0 0 24 24" id="user" xmlns="http://www.w3.org/2000/svg"><path d="M12 5.94a3.81 3.81 0 11-2.71 1.11A3.67 3.67 0 0112 5.94zm0 5.74a1.89 1.89 0 10-1.36-.56 1.84 1.84 0 001.36.56zm0-9.57a9.67 9.67 0 015 1.33 10.07 10.07 0 013.61 3.61 9.84 9.84 0 010 9.9A10.07 10.07 0 0117 20.56a9.84 9.84 0 01-9.9 0A10.07 10.07 0 013.44 17a9.84 9.84 0 010-9.9 10.07 10.07 0 013.61-3.66A9.67 9.67 0 0112 2.11zM12 20a7.92 7.92 0 005.19-1.92A3.2 3.2 0 0016 16.93a3.36 3.36 0 00-1.57-.46 7.53 7.53 0 01-4.83 0 3.49 3.49 0 00-1.6.46 3.2 3.2 0 00-1.18 1.13A7.92 7.92 0 0012 20zm6.5-3.35a8 8 0 10-13 0 5.55 5.55 0 011.85-1.52 5.11 5.11 0 012.34-.56 2.57 2.57 0 01.55.12 5.69 5.69 0 003.51 0 2.66 2.66 0 01.56-.12 5.17 5.17 0 012.34.56 5.55 5.55 0 011.85 1.52z"/></svg></defs></svg>