<svg xmlns="http://www.w3.org/2000/svg" viewBox="0 0 24 24"><path d="M18.45 7.85a2.29 2.29 0 10-2.18-1.56l-2.42 2.42a2.92 2.92 0 00-2.81 0L9.27 6.94a1.62 1.62 0 00.08-.49 1.7 1.7 0 10-1.7 1.7 1.67 1.67 0 00.49-.08l1.77 1.78a2.9 2.9 0 000 2.8L6.7 15.86a2.33 2.33 0 00-1.15-.31 2.33 2.33 0 102.17 1.56L11 13.78a2.7 2.7 0 00.61.25v2.26a2.3 2.3 0 101.6 0V14a2.63 2.63 0 00.6-.25l1.77 1.78a1.61 1.61 0 00-.07.49 1.72 1.72 0 101.2-1.62L15 12.65a2.83 2.83 0 000-2.8l2.31-2.31a2.34 2.34 0 001.14.31zm0-3.25a1 1 0 11-.95 1 1 1 0 01.95-1zM7.65 5.85a.6.6 0 110 1.2.6.6 0 110-1.2zm6.35 5.4a1.55 1.55 0 11-1.55-1.55A1.56 1.56 0 0114 11.25zm-1.55 8.15a.95.95 0 111-.95.95.95 0 01-1 .95zm-6.9-2.5a1 1 0 11-1 1 1 1 0 011-1zm11.7-.25a.6.6 0 110-1.2.6.6 0 010 1.2z"/></svg>