<svg xmlns="http://www.w3.org/2000/svg" viewBox="0 0 25.22 25.2"><path d="M21.81 5.49l-5-4.93a1 1 0 00-.69-.29H5.61a2.48 2.48 0 00-2.48 2.46v19.75a2.47 2.47 0 002.48 2.45h14a2.47 2.47 0 002.47-2.45V6.19a1 1 0 00-.27-.7zm-3-.28h-1.19a.52.52 0 01-.53-.51V3.57zM19.62 23h-14a.53.53 0 01-.53-.52V2.73a.52.52 0 01.53-.51h9.53V4.7a2.46 2.46 0 002.47 2.45h2.53v15.32a.53.53 0 01-.53.53z"/><path d="M16.29 12.82H8.93a1.09 1.09 0 000 2.17h7.36a1.09 1.09 0 000-2.17zm0-4.24H8.93a1.09 1.09 0 000 2.17h7.36a1.09 1.09 0 000-2.17zm0 8.48H8.93a1.09 1.09 0 000 2.17h7.36a1.09 1.09 0 000-2.17z"/></svg>