<svg xmlns="http://www.w3.org/2000/svg" viewBox="0 0 25.22 25.2"><path d="M19.81 19.5v-3a.46.46 0 00-.14-.36.52.52 0 00-.36-.14h-.69a.5.5 0 00-.35.14.51.51 0 00-.15.36v3.56a.51.51 0 00.21.41l1.84 1.36a.52.52 0 00.29.09h.1a.54.54 0 00.32-.21l.38-.56a.52.52 0 00.11-.36.49.49 0 00-.2-.35z"/><path d="M23.84 16.76a5.63 5.63 0 00-10.51 2.81 5.49 5.49 0 00.77 2.82 5.63 5.63 0 109.74-5.63zm-1.32 4.87a4.1 4.1 0 01-7.11 0 4.07 4.07 0 01.5-4.8 4.38 4.38 0 011-.82 3.82 3.82 0 011.61-.52h.45a4.05 4.05 0 013.55 2.06 4 4 0 010 4.08z"/><path d="M7.1 12.77h11.19a5.07 5.07 0 01.68 0 6.73 6.73 0 012.31.41 6.86 6.86 0 011 .43l1.67-.87H24l.37-.37.15-.3v-.6l-.07-.07v-.07l-.2-.22-.15-.12L2.06.09A1 1 0 00.92.28a1 1 0 00-.2 1.13l4.62 10.38-4.28 10.76a1 1 0 00.6 1.3 1 1 0 00.34.06 1 1 0 00.46-.11l9.72-5a5.29 5.29 0 01.19-1 6.78 6.78 0 01.69-1.59.75.75 0 00.07-.12l-9.22 4.7zM3.66 3.11l15.59 7.66H7.06z"/></svg>