<svg xmlns="http://www.w3.org/2000/svg" viewBox="0 0 25.22 25.2"><path d="M21.74 20.4l-1.38-1v-3a.48.48 0 00-.14-.36.54.54 0 00-.36-.14h-.71a.5.5 0 00-.35.14.48.48 0 00-.15.36V20a.52.52 0 00.21.41l.23.17 1.64 1.2a.39.39 0 00.26.09h.1a.61.61 0 00.33-.21l.38-.57a.52.52 0 00.11-.36.36.36 0 000-.11.45.45 0 00-.17-.22z"/><path d="M24.44 16.65a2.12 2.12 0 00-.12-.2 5.42 5.42 0 00-1.61-1.66l-.35-.23a5.67 5.67 0 00-7.78 2.09 5.6 5.6 0 000 5.7 2.54 2.54 0 00.23.34 5.24 5.24 0 001.66 1.62l.18.12a5.7 5.7 0 007.79-7.78zm-1.33 4.93a4.29 4.29 0 01-1.52 1.53 4.15 4.15 0 01-3.23.38 3.44 3.44 0 01-.93-.38 4 4 0 01-1.07-.9 3.64 3.64 0 01-.46-.63 4.15 4.15 0 010-4.17 4.21 4.21 0 011.53-1.52 4 4 0 012.08-.56 4.11 4.11 0 012.08.56 3.57 3.57 0 01.64.46 4.08 4.08 0 01.88 1.06 3.82 3.82 0 01.39.93 3.75 3.75 0 01.18 1.16 4.12 4.12 0 01-.57 2.08z"/><path d="M13.8 23.39a4 4 0 01-.28-.43v-.05h-1A10.46 10.46 0 1123 12.48v1h.06a3.41 3.41 0 01.42.28A6.08 6.08 0 0124.72 15a12 12 0 00.28-2.52A12.48 12.48 0 1012.49 25a12.2 12.2 0 002.51-.29 6.12 6.12 0 01-1.2-1.32z"/><path d="M16.47 8.51l-5.82 5.82-2.13-2.13a1 1 0 00-1.42 0 1 1 0 000 1.38l2.84 2.84a1 1 0 001.42 0l6.54-6.49a1 1 0 000-1.42 1 1 0 00-1.43 0z"/></svg>