<svg xmlns="http://www.w3.org/2000/svg" viewBox="0 0 24 24"><path d="M17.25 16.37h-1.31v.28a.24.24 0 01-.06.11.13.13 0 01-.11 0H5.6a.17.17 0 01-.16-.16V10a.13.13 0 010-.11.24.24 0 01.11-.06h.27V8.5h-.38a1.24 1.24 0 00-.93.38 1.31 1.31 0 00-.39.93v7a1.33 1.33 0 001.32 1.32h10.5a1.31 1.31 0 00.93-.39 1.24 1.24 0 00.38-.93zm1.15-9.18a.17.17 0 01.16.16V14a.14.14 0 010 .11.24.24 0 01-.11.06H8.22a.17.17 0 01-.1-.06.13.13 0 01-.06-.11V7.35a.14.14 0 01.06-.11.12.12 0 01.1 0zm.16-1.31H8.06a1.26 1.26 0 00-.93.38 1.24 1.24 0 00-.38.93v7a1.3 1.3 0 001.31 1.31h10.5a1.24 1.24 0 00.93-.38 1.31 1.31 0 00.39-.93v-7a1.33 1.33 0 00-1.32-1.32zm-7.22 3.06a1 1 0 00-.34-.78 1.1 1.1 0 00-1.87.78 1.1 1.1 0 00.32.78 1.1 1.1 0 001.87-.78zm-2 2.62v1.32h7.88v-2.19l-2-2a.34.34 0 00-.44 0L12 11.56l-1.09-1.09a.34.34 0 00-.44 0z"/></svg>