<svg xmlns="http://www.w3.org/2000/svg" viewBox="0 0 39.95 39.91"><path d="M10.25 39.71h-4a2.17 2.17 0 01-2.15-2.19V24a2.17 2.17 0 012.12-2.2h4a2.18 2.18 0 012.19 2.2v13.52a2.18 2.18 0 01-2.16 2.19zm-3-3.19h2.02V25H7.2zM22 39.71h-4a2.17 2.17 0 01-2.15-2.19V20.26A2.17 2.17 0 0118 18.07h4a2.19 2.19 0 012.16 2.19v17.26A2.18 2.18 0 0122 39.71zm-3-3.19h2V21.26h-2.06zm14.73 3.19h-4a2.19 2.19 0 01-2.16-2.19V14.87a2.17 2.17 0 012.16-2.18h4a2.16 2.16 0 012.15 2.18v22.65a2.17 2.17 0 01-2.15 2.19zm-3-3.19h2.07V15.86h-2.12zm.69-33.46a1.52 1.52 0 00-.86-.79L25.09.3a1.52 1.52 0 00-2 .92 1.58 1.58 0 00.93 2l2.12.78L4.92 14.84l-.62.34.08.15a1.64 1.64 0 001.34 2.6l.07.14L27.27 7l-.62 1.75a1.57 1.57 0 00.93 2 1.54 1.54 0 002-.92l1.95-5.58a1.54 1.54 0 00-.11-1.19z"/></svg>