<svg xmlns="http://www.w3.org/2000/svg" viewBox="0 0 39.95 39.91"><path d="M39.65 21.24a3.89 3.89 0 00-.65-1.19 3.48 3.48 0 00-1-.88 8.28 8.28 0 00-1.26-.64 10.71 10.71 0 00-1.74-.46c-.65-.15-1.28-.22-1.94-.31v-4.6a6.68 6.68 0 012.2.88 4.64 4.64 0 011.51 1.78 1 1 0 00.91.49 1.75 1.75 0 001.03-.31 1.25 1.25 0 00.29-.9v-3.54a1.24 1.24 0 00-.31-.9 1.46 1.46 0 00-1.07-.28 1.58 1.58 0 00-1.09.28 1.19 1.19 0 00-.3.9v.86a7 7 0 00-1.46-1.08A8.84 8.84 0 0033 10.6V7.4a1.25 1.25 0 00-.31-.94 1.83 1.83 0 00-2 0 1.4 1.4 0 00-.3.94v3a10.3 10.3 0 00-2.6.33 7.07 7.07 0 00-2.06 1 5.25 5.25 0 00-1.33 1.57 4.79 4.79 0 00-.5 2.2 4.5 4.5 0 00.24 1.5 4 4 0 00.57 1.12 3 3 0 00.89.82 4.29 4.29 0 001.16.61 11.67 11.67 0 001.77.53c.58.11 1.24.22 1.9.31v5.17a5.83 5.83 0 01-2.69-1.08 4.9 4.9 0 01-1.55-2.2 1.28 1.28 0 00-.37-.57 1 1 0 00-.61-.18 1.43 1.43 0 00-1.07.29 1 1 0 00-.3.9v4.48c0 .42.06.75.3.9a1.43 1.43 0 001.07.29 1.52 1.52 0 001.07-.29c.22-.15.28-.48.28-.9v-1a8 8 0 001.75 1.3 7.55 7.55 0 002.12.75v3.52a1.25 1.25 0 00.3.92 1.83 1.83 0 002 0 1.21 1.21 0 00.31-.92v-3.43a10.7 10.7 0 002.92-.44 6.4 6.4 0 002.14-1.14A5.21 5.21 0 0039.43 25a5.56 5.56 0 00.44-2.24 5.36 5.36 0 00-.22-1.52zm-9.23-3.74c-.39 0-.78-.13-1.13-.18a4.54 4.54 0 01-1-.26 2.39 2.39 0 01-1.09-.57 1.22 1.22 0 01-.42-1 2.06 2.06 0 011-1.78 4.9 4.9 0 012.64-.66zM36 24.78a4.89 4.89 0 01-2.94.88v-5c.46.07.87.11 1.29.2a4.62 4.62 0 011.09.29 2.44 2.44 0 011.11.64 1.24 1.24 0 01.46 1 2.47 2.47 0 01-1 2zM19.35 9.69v2.9H8v-2.9zm0 9.31v2.9H8V19zm0 9.25v2.9H8v-2.9z"/><path d="M33.45 35.47A4.68 4.68 0 0129 39H4.74A4.72 4.72 0 011 37l-.12-.14c-.07-.1-.12-.26-.22-.4l-.19-.4a.75.75 0 01-.09-.3 7.61 7.61 0 01-.19-.57 3.87 3.87 0 01-.08-.9V5.65A4.71 4.71 0 014.75.94H29a4.63 4.63 0 013.75 2 .33.33 0 01.12.14 2.56 2.56 0 01.22.4 1.39 1.39 0 01.21.4c.05.08.05.2.1.29s0 .1 0 .17H4.75A1.35 1.35 0 003.4 5.65v28.61a.05.05 0 000 .05 1.33 1.33 0 001.32 1.3H29a1.29 1.29 0 00.6-.14z"/></svg>