<svg xmlns="http://www.w3.org/2000/svg" viewBox="0 0 24 24"><path d="M19.28 3.73v3.82a.92.92 0 01-.63.88L14.83 9.7a.88.88 0 01-.71 0 .86.86 0 01-.46-.54.92.92 0 01.59-1.18l2.38-.79L16.5 7a6.71 6.71 0 00-11.21 5 .93.93 0 11-1.86 0 8.47 8.47 0 012.4-6 8.6 8.6 0 016-2.61H12a8.52 8.52 0 015.27 1.83l.16.13V3.73a.93.93 0 01.93-.93.92.92 0 01.92.93zM20.57 12a8.59 8.59 0 01-8.41 8.57H12a8.45 8.45 0 01-5.26-1.83l-.17-.13v1.68a.93.93 0 01-1.85 0v-3.83a.93.93 0 01.63-.89l3.81-1.27a1 1 0 01.29-.05.93.93 0 01.88.64.92.92 0 01-.58 1.17l-2.38.8.12.12a6.72 6.72 0 0011.22-5 .9.9 0 01.27-.65.93.93 0 011.31 0 .9.9 0 01.28.67z"/></svg>