<svg xmlns="http://www.w3.org/2000/svg" viewBox="0 0 25.22 25.2"><path d="M22.24 1.71v4.56a1.11 1.11 0 01-.82 1.07l-5 1.51a1.25 1.25 0 01-.93-.06 1.1 1.1 0 01-.6-.65 1 1 0 01.07-.85 1.16 1.16 0 01.7-.55l3.13-1-.17-.14a9.34 9.34 0 00-5.91-2.08c-4.85 0-8.81 3.61-8.81 8a1.16 1.16 0 01-1.22 1.11 1.17 1.17 0 01-1.24-1.03 9.69 9.69 0 013.15-7.13 11.83 11.83 0 017.89-3.11h.21a11.87 11.87 0 016.91 2.19l.21.15v-2A1.2 1.2 0 0121 .6a1.17 1.17 0 011.24 1.11zm1.54 11.89c0 5.56-4.93 10.15-11 10.24h-.23a11.8 11.8 0 01-6.9-2.2l-.25-.14v2a1.15 1.15 0 01-1.2 1.1A1.17 1.17 0 013 23.51v-4.58a1.12 1.12 0 01.83-1.06l5-1.52a1.31 1.31 0 01.38-.06 1.22 1.22 0 011.16.76 1.09 1.09 0 01-.67 1.38h-.09l-3.13 1 .16.13a9.29 9.29 0 005.92 2.08c4.84 0 8.79-3.61 8.8-8a1 1 0 01.36-.79 1.31 1.31 0 011.72 0 1.08 1.08 0 01.34.75z"/></svg>