<svg xmlns="http://www.w3.org/2000/svg" viewBox="0 0 24 24"><path d="M19.27 9.3v-.53a7.46 7.46 0 00-1.95-5.12 6.72 6.72 0 00-5-2.15h-.64a6.72 6.72 0 00-5 2.15 7.46 7.46 0 00-1.95 5.12v.53a3.09 3.09 0 00-2.62 3.06v1.23a3.09 3.09 0 003.09 3.09h1.58a.81.81 0 00.8-.79v-5.83a.8.8 0 00-.8-.79h-.46v-.5a5.4 5.4 0 015.12-5.67h.88a5.4 5.4 0 015.36 5.44 1.93 1.93 0 010 .24v.5h-.46a.79.79 0 00-.79.79v5.82a.81.81 0 00.79.8h.41a3.08 3.08 0 01-2.43 2.85 2.09 2.09 0 00-1.9-1.21H12a2.09 2.09 0 000 4.18h1.3a2.1 2.1 0 002-1.36 5 5 0 001.67-.6 4.76 4.76 0 002.3-3.89 3.09 3.09 0 002.66-3.06v-1.24a3.08 3.08 0 00-2.66-3.06zm1 3.06v1.23a1.51 1.51 0 01-1.5 1.5H18v-4.24h.79a1.51 1.51 0 011.5 1.5zM6 10.86v4.23h-.79a1.5 1.5 0 01-1.5-1.5v-1.23a1.5 1.5 0 011.5-1.5zm7.3 10.05H12a.5.5 0 01-.5-.5.5.5 0 01.5-.5h1.3a.51.51 0 01.5.5.5.5 0 01-.5.5z"/></svg>