<svg xmlns="http://www.w3.org/2000/svg" viewBox="0 0 24 24"><path d="M21.9 20.92L3.07 2.11a.68.68 0 00-.49-.2.68.68 0 00-.68.68v18.82a.69.69 0 00.68.68h18.84a.68.68 0 00.68-.68.7.7 0 00-.2-.49zm-5.17-1.41a.69.69 0 00-.69.69v.52h-1v-.52a.69.69 0 00-.69-.69.68.68 0 00-.68.69v.52h-1v-.52a.68.68 0 00-.68-.69.69.69 0 00-.69.69v.52h-1v-.52a.69.69 0 00-.69-.69.68.68 0 00-.61.69v.52H8v-.52a.69.69 0 10-1.38 0v.52h-1v-.52a.69.69 0 10-1.37 0v.52h-.98V18.5h.56a.69.69 0 100-1.37h-.56V15h.56a.69.69 0 00.69-.69.68.68 0 00-.69-.68h-.56v-2.16h.56a.68.68 0 00.69-.68.69.69 0 00-.69-.69h-.56V8h.56a.69.69 0 100-1.37h-.56V4.25l16.49 16.47h-2.35v-.52a.69.69 0 00-.68-.69z"/><path d="M6.66 10.59a.68.68 0 00-1 0 .67.67 0 00-.2.48v6.74a.68.68 0 00.69.69h6.75a.69.69 0 00.68-.69.67.67 0 00-.2-.48zm4.61 6.54H6.86v-4.4z"/></svg>