<svg xmlns="http://www.w3.org/2000/svg" viewBox="0 0 25.22 25.2"><path d="M16.37.57A12.61 12.61 0 0012.62 0a11 11 0 00-1.29.07 12.59 12.59 0 00-7.19 21.86c.29.27.6.52.92.77l.5.35c.34.22.68.43 1 .63a11.53 11.53 0 001.68.76 12.17 12.17 0 001.79.5 11.52 11.52 0 001.87.24h.67a12.61 12.61 0 003.75-.57q.59-.19 1.14-.42A12.6 12.6 0 0016.37.57zM12.62 23.2a10.6 10.6 0 1110.6-10.6 10.62 10.62 0 01-10.6 10.6z"/><path d="M16.33 13.61l-2.5 2.58V6a1.18 1.18 0 00-2.4 0v10.22l-2.5-2.58a1.17 1.17 0 00-1.64 0 1.24 1.24 0 000 1.72L11.77 20a1.16 1.16 0 001.64 0L18 15.36a1.24 1.24 0 000-1.72 1.17 1.17 0 00-1.67-.03z"/></svg>