<svg xmlns="http://www.w3.org/2000/svg" viewBox="0 0 25.22 25.2"><path d="M21.5 3.73c-.29-.28-.58-.55-.89-.81a10.9 10.9 0 00-1.47-1 8.36 8.36 0 00-1.06-.58 11.41 11.41 0 00-2.31-.89l-.63-.14a11.4 11.4 0 00-1.86-.24h-.67a11.73 11.73 0 00-1.33.07A12.19 12.19 0 007.71 1a12.27 12.27 0 00-3.56 2.31 12.57 12.57 0 007.8 21.85h.69a10.86 10.86 0 001.28-.07 11.8 11.8 0 003-.69A12.55 12.55 0 0021.5 3.73zm-8.89 19.48a10.58 10.58 0 1110.58-10.58 10.6 10.6 0 01-10.58 10.58z"/><path d="M13.45 5.22a1.14 1.14 0 00-1.63 0L7.27 9.87a1.23 1.23 0 000 1.71 1.14 1.14 0 001.63 0L11.43 9v10.17a1.18 1.18 0 002.36.07V9l2.5 2.57a1.14 1.14 0 001.63 0 1.23 1.23 0 000-1.71z"/></svg>