<svg xmlns="http://www.w3.org/2000/svg" viewBox="0 0 25.22 25.2"><path d="M13.32.07h-.69a10.86 10.86 0 00-1.28.07 11.8 11.8 0 00-3 .69 12.55 12.55 0 00-4.53 20.7c.29.28.58.55.89.81a10.9 10.9 0 001.39 1.04c.35.21.7.4 1.06.58a11.41 11.41 0 002.29.84l.63.14a11.4 11.4 0 001.86.24h.67a11.73 11.73 0 001.39-.05 12.59 12.59 0 007.13-3.19A12.57 12.57 0 0013.32.07zm-.69 23.13a10.58 10.58 0 1110.58-10.58A10.6 10.6 0 0112.63 23.2z"/><path d="M17.85 14.2H7.42a.8.8 0 00-.8.81v.22a.8.8 0 00.8.81h10.43a.81.81 0 00.81-.81V15a.81.81 0 00-.81-.8zm0-4.99H7.42a.8.8 0 00-.8.81v.22a.8.8 0 00.8.81h10.43a.81.81 0 00.81-.81V10a.81.81 0 00-.81-.79z"/></svg>