<svg viewBox="0 0 46.178 42.684" xmlns="http://www.w3.org/2000/svg"><path d="M37.556 11.148A13.376 13.376 0 0012.772 6.7a7.662 7.662 0 00-1.405-.133 7.331 7.331 0 00-7.321 7.321 8 8 0 00.154 1.524A10.188 10.188 0 000 23.626a10.892 10.892 0 002.763 7.207A9.862 9.862 0 009.6 34.27h8.242a1.282 1.282 0 100-2.564H9.714c-3.884-.237-7.15-3.931-7.15-8.09a7.611 7.611 0 013.77-6.552 1.292 1.292 0 00.56-1.557 4.652 4.652 0 01-.285-1.633 4.766 4.766 0 014.757-4.757 4.676 4.676 0 011.624.285 1.288 1.288 0 001.6-.655 10.811 10.811 0 0120.539 3.561 1.28 1.28 0 001.071 1.138 9.241 9.241 0 01-.876 18.254h-7a1.282 1.282 0 000 2.564h7.141a11.361 11.361 0 007.616-3.76 11.819 11.819 0 00-5.527-19.352z"/><path d="M30.786 24.841a1.278 1.278 0 000-1.814l-6.79-6.79a1.3 1.3 0 00-.9-.38 1.257 1.257 0 00-.9.38l-6.79 6.79a1.287 1.287 0 00.9 2.194 1.251 1.251 0 00.9-.38l4.605-4.605v21.166a1.282 1.282 0 102.564 0V20.236l4.605 4.605a1.267 1.267 0 001.806 0z"/></svg>