<svg xmlns="http://www.w3.org/2000/svg" viewBox="0 0 24 24"><path d="M12 5.94a3.81 3.81 0 11-2.71 1.11A3.67 3.67 0 0112 5.94zm0 5.74a1.89 1.89 0 10-1.36-.56 1.84 1.84 0 001.36.56zm0-9.57a9.67 9.67 0 015 1.33 10.07 10.07 0 013.61 3.61 9.84 9.84 0 010 9.9A10.07 10.07 0 0117 20.56a9.84 9.84 0 01-9.9 0A10.07 10.07 0 013.44 17a9.84 9.84 0 010-9.9 10.07 10.07 0 013.61-3.66A9.67 9.67 0 0112 2.11zM12 20a7.92 7.92 0 005.19-1.92A3.2 3.2 0 0016 16.93a3.36 3.36 0 00-1.57-.46 7.53 7.53 0 01-4.83 0 3.49 3.49 0 00-1.6.46 3.2 3.2 0 00-1.18 1.13A7.92 7.92 0 0012 20zm6.5-3.35a8 8 0 10-13 0 5.55 5.55 0 011.85-1.52 5.11 5.11 0 012.34-.56 2.57 2.57 0 01.55.12 5.69 5.69 0 003.51 0 2.66 2.66 0 01.56-.12 5.17 5.17 0 012.34.56 5.55 5.55 0 011.85 1.52z"/></svg>